<?xml version="1.0" encoding="utf-8"?>
<!-- Generator: Adobe Illustrator 19.2.1, SVG Export Plug-In . SVG Version: 6.00 Build 0)  -->
<svg version="1.1" id="StandardModel" xmlns="http://www.w3.org/2000/svg" xmlns:xlink="http://www.w3.org/1999/xlink" x="0px"
	 y="0px" width="612px" height="611.2px" viewBox="0 0 612 611.2" style="enable-background:new 0 0 612 611.2;"
	 xml:space="preserve">
<style type="text/css">
	.st0{fill:url(#SVGID_1_);}
	.st1{fill:#1F3254;}
	.st2{font-family:'TitilliumWeb-Regular';}
	.st3{font-size:56.4848px;}
	.st4{font-family:'TitilliumWeb-SemiBold';}
	.st5{font-size:16.1385px;}
	.st6{fill:url(#SVGID_2_);}
	.st7{fill:url(#SVGID_3_);}
	.st8{fill:url(#SVGID_4_);}
	.st9{font-family:'MyriadPro-Regular';}
	.st10{fill:url(#SVGID_5_);}
	.st11{font-size:60.5195px;}
	.st12{fill:url(#SVGID_6_);}
	.st13{font-size:22.5939px;}
	.st14{fill:url(#SVGID_7_);}
	.st15{fill:url(#SVGID_8_);}
	.st16{fill:url(#SVGID_9_);}
	.st17{fill:url(#SVGID_10_);}
	.st18{fill:url(#SVGID_11_);}
	.st19{fill:url(#SVGID_12_);}
	.st20{fill:url(#SVGID_13_);}
	.st21{fill:url(#SVGID_14_);}
	.st22{fill:url(#SVGID_15_);}
	.st23{fill:url(#SVGID_16_);}
	.st24{fill:url(#SVGID_17_);}
</style>
<g id="Bosons_1_">
	<g id="Gauge-Bosons">
		<g id="boson-w">
			<linearGradient id="SVGID_1_" gradientUnits="userSpaceOnUse" x1="282.3068" y1="127.058" x2="403.0338" y2="421.886">
				<stop  offset="0" style="stop-color:#93CD8D"/>
				<stop  offset="1" style="stop-color:#80C566"/>
			</linearGradient>
			<path class="st0" d="M389.7,308.3c-0.9,45.2-37.3,81.6-82.5,82.5v84.7c92-0.9,166.3-75.2,167.3-167.3H389.7z"/>
			<g>
				<text transform="matrix(1 0 0 1 373.6666 407.4835)" class="st1 st2 st3">W</text>
			</g>
			<g>
				<text transform="matrix(1 0 0 1 351.3385 426.0518)" class="st1 st4 st5">W Boson</text>
			</g>
		</g>
		<g id="boson-z">
			<linearGradient id="SVGID_2_" gradientUnits="userSpaceOnUse" x1="145.4667" y1="183.0917" x2="266.1937" y2="477.9197">
				<stop  offset="0" style="stop-color:#93CD8D"/>
				<stop  offset="1" style="stop-color:#80C566"/>
			</linearGradient>
			<path class="st6" d="M303.8,390.9c-45.2-0.9-81.6-37.3-82.5-82.5h-84.7c0.9,92,75.2,166.3,167.2,167.3V390.9z"/>
			<g>
				<text transform="matrix(1 0 0 1 197.5631 401.0255)" class="st1 st2 st3">Z</text>
			</g>
			<g>
				<text transform="matrix(1 0 0 1 196.2325 424.0284)" class="st1 st4 st5">Z Boson</text>
			</g>
		</g>
		<g id="boson-gluon">
			<linearGradient id="SVGID_3_" gradientUnits="userSpaceOnUse" x1="332.856" y1="106.359" x2="453.583" y2="401.187">
				<stop  offset="0" style="stop-color:#93CD8D"/>
				<stop  offset="1" style="stop-color:#80C566"/>
			</linearGradient>
			<path class="st7" d="M307.2,222.4c45.2,0.9,81.6,37.3,82.5,82.5h84.7c-0.9-92-75.2-166.3-167.3-167.2V222.4z"/>
			<g>
				<text transform="matrix(1 0 0 1 396.596 233.177)" class="st1 st2 st3">g</text>
			</g>
			<g>
				<text transform="matrix(1 0 0 1 392.0619 259.2606)" class="st1 st4 st5">Gluon</text>
			</g>
		</g>
		<g id="boson-photon">
			<linearGradient id="SVGID_4_" gradientUnits="userSpaceOnUse" x1="196.016" y1="162.3926" x2="316.743" y2="457.2206">
				<stop  offset="0" style="stop-color:#93CD8D"/>
				<stop  offset="1" style="stop-color:#80C566"/>
			</linearGradient>
			<path class="st8" d="M221.3,305c0.9-45.2,37.3-81.6,82.5-82.5v-84.7c-92,0.9-166.3,75.2-167.2,167.2H221.3z"/>
			<g>
				<text transform="matrix(1 0 0 1 185.6705 232.9554)" class="st1 st9 st3">γ</text>
			</g>
			<g>
				<text transform="matrix(1 0 0 1 171.127 258.6182)" class="st1 st4 st5">Photon</text>
			</g>
		</g>
	</g>
	<g id="Scalar-Boson">
		<linearGradient id="SVGID_5_" gradientUnits="userSpaceOnUse" x1="238.1764" y1="306.6518" x2="372.7589" y2="306.6518">
			<stop  offset="0" style="stop-color:#EEE677"/>
			<stop  offset="1" style="stop-color:#EDBB31"/>
		</linearGradient>
		<path class="st10" d="M372.8,306.7c0,37.2-30.1,67.3-67.3,67.3s-67.3-30.1-67.3-67.3s30.1-67.3,67.3-67.3S372.8,269.5,372.8,306.7
			z"/>
		<g>
			<text transform="matrix(1 0 0 1 284.7525 314.9208)" class="st1 st2 st11">H</text>
		</g>
		<g>
			<text transform="matrix(1 0 0 1 286.3161 332.0595)"><tspan x="0" y="0" class="st1 st4 st5">Higgs</tspan><tspan x="-2" y="15.3" class="st1 st4 st5">Boson</tspan></text>
		</g>
	</g>
</g>
<g id="Fermions">
	<g id="Leptons">
		<g id="lepton-electron-neutrino">
			<linearGradient id="SVGID_6_" gradientUnits="userSpaceOnUse" x1="537.0888" y1="309.4053" x2="537.0888" y2="591.2904">
				<stop  offset="0" style="stop-color:#30B3DF"/>
				<stop  offset="1" style="stop-color:#226CAB"/>
			</linearGradient>
			<path class="st12" d="M601.4,308.3H497.6c-0.3,33.8-9.3,65.5-24.8,93l89.9,51.9C587,410.5,601.1,361,601.4,308.3z"/>
			<g>
				<text transform="matrix(1 0 0 1 529.5919 373.1788)" class="st1 st9 st11">ν</text>
			</g>
			<g>
				<text transform="matrix(1 0 0 1 551.6015 373.0499)" class="st1 st2 st13">e</text>
			</g>
			<g>
				<text transform="matrix(1 0 0 1 515.1299 389.9657)"><tspan x="0" y="0" class="st1 st4 st5">Electron</tspan><tspan x="-0.7" y="12.1" class="st1 st4 st5">neutrino</tspan></text>
			</g>
		</g>
		<g id="lepton-muon-neutrino">
			<linearGradient id="SVGID_7_" gradientUnits="userSpaceOnUse" x1="482.014" y1="309.4053" x2="482.014" y2="591.2904">
				<stop  offset="0" style="stop-color:#30B3DF"/>
				<stop  offset="1" style="stop-color:#226CAB"/>
			</linearGradient>
			<path class="st14" d="M471.1,404.2c-16.5,28-40,51.5-68.1,68.1l51.9,89.9c43.8-25.7,80.4-62.2,106-106L471.1,404.2z"/>
			<g>
				<text transform="matrix(1 0 0 1 486.2449 484.7253)" class="st1 st2 st13">μ</text>
			</g>
			<g>
				<text transform="matrix(1 0 0 1 463.8553 484.6608)" class="st1 st9 st11">ν</text>
			</g>
			<g>
				<text transform="matrix(1 0 0 1 458.6925 503.0367)"><tspan x="0" y="0" class="st1 st4 st5">Muon</tspan><tspan x="-9.4" y="12.1" class="st1 st4 st5">neutrino</tspan></text>
			</g>
		</g>
		<g id="lepton-tau-neutrino">
			<linearGradient id="SVGID_8_" gradientUnits="userSpaceOnUse" x1="379.5842" y1="309.4053" x2="379.5842" y2="591.2904">
				<stop  offset="0" style="stop-color:#30B3DF"/>
				<stop  offset="1" style="stop-color:#226CAB"/>
			</linearGradient>
			<path class="st15" d="M400.1,474c-27.5,15.6-59.2,24.5-93,24.8v103.7c52.7-0.3,102.1-14.3,144.9-38.7L400.1,474z"/>
			<g>
				<text transform="matrix(1 0 0 1 373.1926 544.8518)" class="st1 st9 st13">τ</text>
			</g>
			<g>
				<text transform="matrix(1 0 0 1 348.3352 544.633)" class="st1 st9 st11">ν</text>
			</g>
			<g>
				<text transform="matrix(1 0 0 1 349.7807 562.0118)"><tspan x="0" y="0" class="st1 st4 st5">Tau</tspan><tspan x="-16.6" y="12.1" class="st1 st4 st5">neutrino</tspan></text>
			</g>
		</g>
		<g id="lepton-electron">
			<linearGradient id="SVGID_9_" gradientUnits="userSpaceOnUse" x1="231.3504" y1="309.4053" x2="231.3504" y2="591.2904">
				<stop  offset="0" style="stop-color:#30B3DF"/>
				<stop  offset="1" style="stop-color:#226CAB"/>
			</linearGradient>
			<path class="st16" d="M303.8,602.6V498.8c-33.8-0.3-65.5-9.3-93-24.8l-51.9,89.9C201.7,588.2,251.1,602.3,303.8,602.6z"/>
			<g>
				<text transform="matrix(1 0 0 1 232.6207 544.1562)" class="st1 st2 st11">e</text>
			</g>
			<g>
				<text transform="matrix(1 0 0 1 219.2486 561.4897)" class="st1 st4 st5">Electron</text>
			</g>
		</g>
		<g id="lepton-muon">
			<linearGradient id="SVGID_10_" gradientUnits="userSpaceOnUse" x1="128.9211" y1="309.4053" x2="128.9211" y2="591.2904">
				<stop  offset="0" style="stop-color:#30B3DF"/>
				<stop  offset="1" style="stop-color:#226CAB"/>
			</linearGradient>
			<path class="st17" d="M207.9,472.3c-28-16.5-51.5-40-68.1-68.1L50,456.1c25.7,43.8,62.2,80.4,106,106L207.9,472.3z"/>
			<g>
				<text transform="matrix(1 0 0 1 117.5782 484.8292)" class="st1 st2 st11">μ</text>
			</g>
			<g>
				<text transform="matrix(1 0 0 1 116.0099 513.175)" class="st1 st4 st5">Muon</text>
			</g>
		</g>
		<g id="lepton-tau">
			<linearGradient id="SVGID_11_" gradientUnits="userSpaceOnUse" x1="73.8463" y1="309.4053" x2="73.8463" y2="591.2904">
				<stop  offset="0" style="stop-color:#30B3DF"/>
				<stop  offset="1" style="stop-color:#226CAB"/>
			</linearGradient>
			<path class="st18" d="M138.1,401.3c-15.6-27.5-24.5-59.2-24.8-93H9.6C9.9,361,23.9,410.5,48.3,453.2L138.1,401.3z"/>
			<g>
				<text transform="matrix(1 0 0 1 55.6597 371.202)" class="st1 st9 st11">τ</text>
			</g>
			<g>
				<text transform="matrix(1 0 0 1 55.6392 390.0122)" class="st1 st4 st5">Tau</text>
			</g>
		</g>
	</g>
	<g id="Quarks">
		<g id="quark-bottom">
			<linearGradient id="SVGID_12_" gradientUnits="userSpaceOnUse" x1="537.0887" y1="12.0356" x2="537.0887" y2="304.2723">
				<stop  offset="0" style="stop-color:#F390BB"/>
				<stop  offset="1" style="stop-color:#B76DAD"/>
			</linearGradient>
			<path class="st19" d="M472.8,212c15.6,27.5,24.5,59.2,24.8,93h103.7c-0.3-52.7-14.3-102.1-38.7-144.9L472.8,212z"/>
			<g>
				<text transform="matrix(1 0 0 1 528.5054 256.9503)" class="st1 st2 st11">b</text>
			</g>
			<g>
				<text transform="matrix(1 0 0 1 517.5884 276.3165)" class="st1 st4 st5">Bottom</text>
			</g>
		</g>
		<g id="quark-strange">
			<linearGradient id="SVGID_13_" gradientUnits="userSpaceOnUse" x1="482.014" y1="12.0356" x2="482.014" y2="304.2723">
				<stop  offset="0" style="stop-color:#F390BB"/>
				<stop  offset="1" style="stop-color:#B76DAD"/>
			</linearGradient>
			<path class="st20" d="M403.1,141c28,16.5,51.5,40,68.1,68.1l89.9-51.9c-25.7-43.8-62.2-80.4-106-106L403.1,141z"/>
			<g>
				<text transform="matrix(1 0 0 1 464.3815 151.9049)" class="st1 st2 st11">s</text>
			</g>
			<g>
				<text transform="matrix(1 0 0 1 451.0387 169.2715)" class="st1 st4 st5">Strange</text>
			</g>
		</g>
		<g id="quark-down_1_">
			<linearGradient id="SVGID_14_" gradientUnits="userSpaceOnUse" x1="379.5841" y1="12.0356" x2="379.5841" y2="304.2723">
				<stop  offset="0" style="stop-color:#F390BB"/>
				<stop  offset="1" style="stop-color:#B76DAD"/>
			</linearGradient>
			<path class="st21" d="M307.2,10.7v103.7c33.8,0.3,65.5,9.3,93,24.8L452,49.5C409.3,25.1,359.9,11,307.2,10.7z"/>
			<g>
				<text transform="matrix(1 0 0 1 342.2251 104.4299)" class="st1 st4 st5">Down</text>
			</g>
			<g>
				<text transform="matrix(1 0 0 1 347.2701 82.6543)" class="st1 st2 st11">d</text>
			</g>
		</g>
		<g id="quark-top_1_">
			<linearGradient id="SVGID_15_" gradientUnits="userSpaceOnUse" x1="231.3505" y1="12.0356" x2="231.3505" y2="304.2723">
				<stop  offset="0" style="stop-color:#F390BB"/>
				<stop  offset="1" style="stop-color:#B76DAD"/>
			</linearGradient>
			<path class="st22" d="M210.8,139.3c27.5-15.6,59.2-24.5,93-24.8V10.7C251.1,11,201.7,25.1,158.9,49.5L210.8,139.3z"/>
			<g>
				<text transform="matrix(1 0 0 1 237.0641 82.9729)" class="st1 st2 st11">t</text>
			</g>
			<g>
				<text transform="matrix(1 0 0 1 235.6442 104.5331)" class="st1 st4 st5">Top</text>
			</g>
		</g>
		<g id="quark-charm">
			<linearGradient id="SVGID_16_" gradientUnits="userSpaceOnUse" x1="128.9211" y1="12.0356" x2="128.9211" y2="304.2723">
				<stop  offset="0" style="stop-color:#F390BB"/>
				<stop  offset="1" style="stop-color:#B76DAD"/>
			</linearGradient>
			<path class="st23" d="M139.8,209.1c16.5-28,40-51.5,68.1-68.1L156,51.1c-43.8,25.7-80.4,62.2-106,106L139.8,209.1z"/>
			<g>
				<text transform="matrix(1 0 0 1 121.1304 151.9132)" class="st1 st2 st11">c</text>
			</g>
			<g>
				<text transform="matrix(1 0 0 1 112.5563 168.4722)" class="st1 st4 st5">Charm</text>
			</g>
		</g>
		<g id="quark-up">
			<linearGradient id="SVGID_17_" gradientUnits="userSpaceOnUse" x1="73.8465" y1="12.0356" x2="73.8465" y2="304.2723">
				<stop  offset="0" style="stop-color:#F390BB"/>
				<stop  offset="1" style="stop-color:#B76DAD"/>
			</linearGradient>
			<path class="st24" d="M9.6,305h103.7c0.3-33.8,9.3-65.5,24.8-93l-89.9-51.9C23.9,202.8,9.9,252.3,9.6,305z"/>
			<g>
				<text transform="matrix(1 0 0 1 58.9718 277.2308)" class="st1 st4 st5">Up</text>
			</g>
			<text transform="matrix(1 0 0 1 52.2896 255.67)" class="st1 st2 st11">u</text>
		</g>
	</g>
</g>
</svg>
